<?xml version="1.0" encoding="UTF-8"?>
<svg version="1.1" xmlns="http://www.w3.org/2000/svg" width="1024" height="1024">
<path d="M0 0 C1.72053589 0.22248413 1.72053589 0.22248413 3.47583008 0.44946289 C6.23046875 1.02734375 6.23046875 1.02734375 8.23046875 3.02734375 C3.11254298 4.3661389 -1.91022875 5.41081172 -7.14453125 6.21484375 C-41.61771816 12.00128916 -74.90119196 24.90525112 -105.76953125 41.02734375 C-106.70152344 41.50300781 -107.63351562 41.97867188 -108.59375 42.46875 C-125.10683644 51.13256665 -140.39953145 62.13648376 -154.40722656 74.3984375 C-157.05903196 76.69767142 -159.52007019 78.66038297 -162.76953125 80.02734375 C-162.76953125 80.68734375 -162.76953125 81.34734375 -162.76953125 82.02734375 C-164.1328125 83.33203125 -164.1328125 83.33203125 -166.08203125 84.90234375 C-212.77935024 124.77593479 -239.07476453 191.76565854 -246.76953125 251.02734375 C-246.86524414 251.70788818 -246.96095703 252.38843262 -247.05957031 253.08959961 C-250.01947364 277.32314508 -249.10871143 304.07538362 -244.76953125 328.02734375 C-244.57617188 329.10983398 -244.3828125 330.19232422 -244.18359375 331.30761719 C-238.28719517 363.27374095 -228.38280268 395.40070178 -212.76953125 424.02734375 C-212.37572266 424.75840332 -211.98191406 425.48946289 -211.57617188 426.24267578 C-204.66203386 438.97487335 -196.63874695 450.58632962 -187.76953125 462.02734375 C-187.23602051 462.72456543 -186.70250977 463.42178711 -186.15283203 464.14013672 C-174.77550632 478.94945098 -161.76715018 492.82740515 -146.76953125 504.02734375 C-146.2379541 504.42469727 -145.70637695 504.82205078 -145.15869141 505.23144531 C-136.99123752 511.29710072 -128.61246739 516.98414168 -119.76953125 522.02734375 C-119.04475586 522.44097168 -118.31998047 522.85459961 -117.57324219 523.28076172 C-80.19736098 544.32103051 -39.78676286 553.11137452 2.23046875 559.02734375 C1.90046875 559.68734375 1.57046875 560.34734375 1.23046875 561.02734375 C-1.42724609 561.7734375 -1.42724609 561.7734375 -4.98046875 562.46484375 C-5.6220694 562.59044678 -6.26367004 562.7160498 -6.92471313 562.84545898 C-8.29762094 563.11184933 -9.67138929 563.37383539 -11.04589844 563.63183594 C-13.07616786 564.01446 -15.10245655 564.41411106 -17.12890625 564.81640625 C-34.72801266 568.2383877 -52.06831619 569.36023859 -69.984375 569.28808594 C-73.13431135 569.27737849 -76.28367466 569.28804441 -79.43359375 569.30078125 C-96.74992112 569.3138776 -113.97637945 568.45497328 -130.95703125 564.83984375 C-131.98691162 564.62553711 -133.01679199 564.41123047 -134.07788086 564.19042969 C-182.06340465 553.93553199 -227.82275004 534.60805311 -265.76953125 503.02734375 C-267.70633784 501.44316228 -269.64385247 499.85984611 -271.58203125 498.27734375 C-272.45472656 497.560625 -273.32742188 496.84390625 -274.2265625 496.10546875 C-275.94824547 494.69850202 -277.68040694 493.30427748 -279.421875 491.921875 C-286.32947055 486.34752584 -286.32947055 486.34752584 -287.76953125 482.02734375 C-288.42953125 482.02734375 -289.08953125 482.02734375 -289.76953125 482.02734375 C-291.07421875 480.76953125 -291.07421875 480.76953125 -292.64453125 478.90234375 C-293.26714844 478.16757812 -293.88976562 477.4328125 -294.53125 476.67578125 C-295.26988281 475.80179688 -296.00851562 474.9278125 -296.76953125 474.02734375 C-297.67015634 472.99719282 -298.57261035 471.96863894 -299.4765625 470.94140625 C-311.55041411 457.16142313 -321.98005664 442.63778854 -331.54492188 427.015625 C-332.51220461 425.44514044 -333.50376603 423.88961057 -334.50390625 422.33984375 C-355.5612274 389.21596779 -368.07904421 345.943937 -370.76953125 307.02734375 C-370.82979492 306.18107422 -370.89005859 305.33480469 -370.95214844 304.46289062 C-375.03273611 243.36202759 -359.13576629 180.56041408 -325.76953125 129.02734375 C-325.36428223 128.39135254 -324.9590332 127.75536133 -324.54150391 127.10009766 C-316.86640726 115.09223689 -308.49698919 103.75949482 -298.828125 93.26953125 C-297.04730754 91.32989326 -295.34161301 89.35215952 -293.64453125 87.33984375 C-244.84918128 31.50888518 -166.98053601 1.0974435 -94.16625977 -4.16064453 C-62.65355359 -6.08267577 -31.26393728 -4.06960273 0 0 Z " fill="#FEFEFE" transform="translate(606.76953125,230.97265625)"/>
<path d="M0 0 C1.38711182 0.68823853 1.38711182 0.68823853 2.80224609 1.39038086 C3.7917627 1.90093018 4.7812793 2.41147949 5.80078125 2.9375 C6.84443848 3.46931885 7.8880957 4.0011377 8.96337891 4.54907227 C33.43114322 17.21087738 56.39940281 31.72103953 77.11328125 49.9375 C77.84675781 50.57171875 78.58023438 51.2059375 79.3359375 51.859375 C81.27368769 53.53901532 83.19515629 55.2355018 85.11328125 56.9375 C85.86738281 57.59878906 86.62148438 58.26007813 87.3984375 58.94140625 C94.24613932 65.00775382 100.69741831 71.42242269 107.11328125 77.9375 C104.54448798 82.0440342 102.05241677 85.1734413 98.36328125 88.375 C97.4815625 89.14714844 96.59984375 89.91929687 95.69140625 90.71484375 C94.840625 91.44832031 93.98984375 92.18179688 93.11328125 92.9375 C91.77932679 94.10345643 90.44594319 95.27006647 89.11328125 96.4375 C88.13681641 97.28441406 88.13681641 97.28441406 87.140625 98.1484375 C85.740349 99.38413386 84.3584686 100.64087974 82.9921875 101.9140625 C65.76063786 117.89610685 44.58118091 135.07387043 23.11328125 144.9375 C17.89014549 141.61736719 12.92710665 138.06228931 8.05078125 134.25 C0.63404196 128.47096432 -7.07291209 123.16275175 -14.88671875 117.9375 C-15.54091797 117.49825195 -16.19511719 117.05900391 -16.86914062 116.60644531 C-28.6524728 108.72948044 -40.85236115 101.60990737 -53.13476562 94.54418945 C-55.72211022 93.03360439 -58.27089047 91.47186091 -60.8203125 89.8984375 C-66.52275061 86.46817475 -72.47165821 83.65633966 -78.51171875 80.875 C-80.30283081 80.04669678 -80.30283081 80.04669678 -82.13012695 79.20166016 C-91.67574834 74.82307596 -101.34371605 70.7608087 -111.07421875 66.8125 C-111.7524469 66.53687225 -112.43067505 66.26124451 -113.12945557 65.9772644 C-120.3113534 63.06749868 -127.49674948 60.27967605 -134.88671875 57.9375 C-134.88671875 57.2775 -134.88671875 56.6175 -134.88671875 55.9375 C-133.92894531 55.46441406 -132.97117187 54.99132812 -131.984375 54.50390625 C-124.63478082 50.85943312 -117.32287538 47.15429627 -110.07421875 43.3125 C-109.41881104 42.96517822 -108.76340332 42.61785645 -108.08813477 42.26000977 C-105.15930475 40.70108711 -102.23799271 39.13120096 -99.33251953 37.52905273 C-83.14281248 28.60580806 -66.40228984 20.94326126 -49.23364258 14.10742188 C-43.16792956 11.69113148 -37.14522308 9.20807544 -31.16796875 6.58203125 C-30.53018997 6.30297943 -29.89241119 6.02392761 -29.23530579 5.73641968 C-26.14971957 4.38533633 -23.07002948 3.02372902 -19.99682617 1.64453125 C-18.33937378 0.9175 -18.33937378 0.9175 -16.6484375 0.17578125 C-15.67865967 -0.25694092 -14.70888184 -0.68966309 -13.7097168 -1.13549805 C-8.57003113 -2.82324227 -4.78593979 -2.39176824 0 0 Z " fill="#FEFEFE" transform="translate(658.88671875,258.0625)"/>
<path d="M0 0 C3.28021163 1.25008065 6.21234717 2.88801633 9.1875 4.7265625 C9.83066162 5.11924316 10.47382324 5.51192383 11.13647461 5.91650391 C24.87808637 14.41583037 38.1073788 23.68213565 50.5625 33.9765625 C51.12211426 34.43853027 51.68172852 34.90049805 52.25830078 35.37646484 C63.48274359 44.70192758 74.3206684 54.57876392 84.5625 64.9765625 C82.9902813 69.02076362 80.11088437 71.4825124 76.9375 74.2890625 C76.39335449 74.77834229 75.84920898 75.26762207 75.28857422 75.77172852 C73.71885154 77.1798279 72.14201234 78.5794638 70.5625 79.9765625 C69.87671875 80.58757812 69.1909375 81.19859375 68.484375 81.828125 C66.52303629 83.5592196 64.54283193 85.26722336 62.5625 86.9765625 C61.5492938 87.86697661 60.5362909 88.75762209 59.5234375 89.6484375 C39.80515132 106.89623898 18.03788844 121.56102056 -4.4375 134.9765625 C-5.73743621 135.76487182 -7.03688665 136.55398255 -8.3359375 137.34375 C-9.68208707 138.15919201 -11.02843812 138.97430152 -12.375 139.7890625 C-13.29841187 140.34968384 -13.29841187 140.34968384 -14.24047852 140.92163086 C-15.96258542 141.95715381 -17.6998183 142.9673934 -19.4375 143.9765625 C-20.42878906 144.55792969 -21.42007813 145.13929688 -22.44140625 145.73828125 C-29.69386935 148.73571385 -36.05145141 146.10591753 -43.0625 143.6640625 C-44.61348389 143.13425781 -44.61348389 143.13425781 -46.19580078 142.59375 C-75.17685205 132.57624631 -102.83311293 120.8907309 -129.83398438 106.42236328 C-138.22069339 101.96813188 -146.82660115 97.9748174 -155.4375 93.9765625 C-155.4375 93.3165625 -155.4375 92.6565625 -155.4375 91.9765625 C-154.87579102 91.75105713 -154.31408203 91.52555176 -153.73535156 91.29321289 C-135.40567231 83.91486634 -117.286259 76.18431226 -99.70898438 67.14111328 C-97.09820436 65.80261149 -94.47838355 64.48248147 -91.859375 63.16015625 C-80.53521328 57.39936148 -69.77136875 51.36401973 -59.4375 43.9765625 C-57.98711015 42.95814676 -56.53658256 41.93992717 -55.0859375 40.921875 C-44.85322908 33.68402544 -35.07422414 25.98518887 -25.4375 17.9765625 C-21.78783713 14.95484939 -18.12580125 11.95099899 -14.4375 8.9765625 C-13.92670898 8.55793945 -13.41591797 8.13931641 -12.88964844 7.70800781 C-11.29279874 6.40640646 -9.68014364 5.12718438 -8.0625 3.8515625 C-6.62777344 2.70300781 -6.62777344 2.70300781 -5.1640625 1.53125 C-2.4375 -0.0234375 -2.4375 -0.0234375 0 0 Z " fill="#FEFEFE" transform="translate(680.4375,625.0234375)"/>
<path d="" fill="#F4F4F5" transform="translate(0,0)"/>
<path d="M0 0 C2 1 2 1 2 1 Z " fill="#F5F6F6" transform="translate(578,339)"/>
<path d="M0 0 C2 1 2 1 2 1 Z " fill="#F8F9F9" transform="translate(625,264)"/>
<path d="M0 0 C2 1 2 1 2 1 Z " fill="#F4F3F3" transform="translate(407,251)"/>
<path d="" fill="#252726" transform="translate(0,0)"/>
<path d="" fill="#414241" transform="translate(0,0)"/>
<path d="" fill="#F3F6F5" transform="translate(0,0)"/>
<path d="" fill="#F3F6F4" transform="translate(0,0)"/>
<path d="" fill="#F4F6F5" transform="translate(0,0)"/>
<path d="" fill="#F3F4F3" transform="translate(0,0)"/>
<path d="" fill="#F4F2F4" transform="translate(0,0)"/>
<path d="" fill="#F3F5F5" transform="translate(0,0)"/>
<path d="" fill="#F1F1F1" transform="translate(0,0)"/>
<path d="" fill="#F4F3F6" transform="translate(0,0)"/>
<path d="" fill="#F8FAF8" transform="translate(0,0)"/>
<path d="" fill="#F6F8F8" transform="translate(0,0)"/>
<path d="" fill="#F6F9F6" transform="translate(0,0)"/>
<path d="" fill="#F4F4F4" transform="translate(0,0)"/>
<path d="" fill="#F2F4F4" transform="translate(0,0)"/>
<path d="" fill="#F2F3F2" transform="translate(0,0)"/>
<path d="" fill="#F1F2F2" transform="translate(0,0)"/>
<path d="" fill="#F7F8F7" transform="translate(0,0)"/>
<path d="" fill="#F3F5F5" transform="translate(0,0)"/>
<path d="" fill="#F9F8F6" transform="translate(0,0)"/>
<path d="" fill="#F6F8F5" transform="translate(0,0)"/>
<path d="" fill="#F5F7F5" transform="translate(0,0)"/>
<path d="" fill="#F4F5F6" transform="translate(0,0)"/>
<path d="" fill="#F6F7F6" transform="translate(0,0)"/>
<path d="" fill="#F7F7F6" transform="translate(0,0)"/>
<path d="" fill="#F3F4F3" transform="translate(0,0)"/>
<path d="" fill="#F7F6F5" transform="translate(0,0)"/>
<path d="" fill="#F3F6F5" transform="translate(0,0)"/>
<path d="" fill="#F3F5F4" transform="translate(0,0)"/>
<path d="" fill="#F6F7F7" transform="translate(0,0)"/>
<path d="" fill="#F4F4F4" transform="translate(0,0)"/>
<path d="" fill="#F2F2F1" transform="translate(0,0)"/>
<path d="" fill="#F1F0F1" transform="translate(0,0)"/>
<path d="" fill="#F5F5F6" transform="translate(0,0)"/>
<path d="" fill="#F4F6F6" transform="translate(0,0)"/>
<path d="" fill="#F5F6F5" transform="translate(0,0)"/>
<path d="" fill="#F1F3F1" transform="translate(0,0)"/>
<path d="" fill="#F6F6F8" transform="translate(0,0)"/>
<path d="" fill="#F6F6F6" transform="translate(0,0)"/>
<path d="" fill="#F3F5F5" transform="translate(0,0)"/>
<path d="" fill="#F4F4F4" transform="translate(0,0)"/>
<path d="" fill="#F4F5F4" transform="translate(0,0)"/>
<path d="" fill="#F2F2F0" transform="translate(0,0)"/>
<path d="" fill="#FDFEFE" transform="translate(0,0)"/>
<path d="" fill="#FDFCFC" transform="translate(0,0)"/>
<path d="" fill="#F1F1F1" transform="translate(0,0)"/>
<path d="" fill="#F2F3F1" transform="translate(0,0)"/>
<path d="" fill="#F3F5F3" transform="translate(0,0)"/>
<path d="" fill="#F2F3F2" transform="translate(0,0)"/>
<path d="" fill="#F9FBFB" transform="translate(0,0)"/>
<path d="" fill="#F0F0F0" transform="translate(0,0)"/>
<path d="" fill="#EFF1F1" transform="translate(0,0)"/>
</svg>
