<?xml version="1.0" encoding="UTF-8"?>
<svg version="1.1" xmlns="http://www.w3.org/2000/svg" width="1459" height="300" viewBox="0 60 1459 300">
<path d="M0 0 C23 0 23 0 29.25 5.625 C30.70605469 7.54150391 30.70605469 7.54150391 31.671875 9.2265625 C34.0018976 13.07090133 36.68247796 16.5041129 39.5 20 C40.41772325 21.17625974 41.33439272 22.35334242 42.25 23.53125 C44.91761808 26.92640028 47.69165605 30.22093931 50.5 33.5 C54.28188195 37.91577693 57.93267103 42.40917906 61.5 47 C65.56689122 52.23290268 69.76470622 57.32749943 74.06835938 62.36694336 C79.23991494 68.43004966 84.21879362 74.62505816 89 81 C89.33 54.27 89.66 27.54 90 0 C97.26 0 104.52 0 112 0 C112 46.86 112 93.72 112 142 C100 142 100 142 95.9375 138.375 C94.59523364 136.60552361 93.28554088 134.81110749 92 133 C90.75059315 131.40475733 89.50067099 129.80988068 88.24047852 128.22314453 C86.83435006 126.44870243 85.44448388 124.66225305 84.0546875 122.875 C80.77717038 118.68837485 77.39286193 114.59330588 74 110.5 C69.28672751 104.80875375 64.65546462 99.06674663 60.11328125 93.23828125 C56.63146066 88.77910752 53.07754476 84.38263657 49.5 80 C44.53364867 73.91528582 39.65064027 67.77348435 34.828125 61.57421875 C30.94583262 56.66773046 26.96195492 51.84238935 23 47 C22.67 78.35 22.34 109.7 22 142 C14.74 142 7.48 142 0 142 C0 95.14 0 48.28 0 0 Z " fill="#000000" transform="translate(694,68)"/>
<path d="M0 0 C23 0 23 0 29.9375 6.375 C31.57519531 8.4831543 31.57519531 8.4831543 32.640625 10.26171875 C34.62556845 13.43491135 36.78684132 16.30764008 39.1875 19.1875 C39.81140625 19.97640625 40.4353125 20.7653125 41.078125 21.578125 C44.66376736 26.09661741 48.34123694 30.54068708 52 35 C53.50028317 36.83310162 55.00028408 38.66643427 56.5 40.5 C57.2425 41.4075 57.985 42.315 58.75 43.25 C64 49.66666667 69.25 56.08333333 74.5 62.5 C75.2321875 63.39460938 75.964375 64.28921875 76.71875 65.2109375 C78.32404236 67.17357233 79.9282639 69.13704666 81.53125 71.1015625 C82.3459375 72.09929687 83.160625 73.09703125 84 74.125 C84.7425 75.03507812 85.485 75.94515625 86.25 76.8828125 C87.13277792 77.95081615 88.02022231 79.02022231 89 80 C89.33 53.6 89.66 27.2 90 0 C97.26 0 104.52 0 112 0 C112 46.86 112 93.72 112 142 C100 142 100 142 96.22265625 138.84375 C95.13163873 137.42397387 94.07949003 135.97370784 93.0625 134.5 C91.88066494 132.93064562 90.69836222 131.36164333 89.515625 129.79296875 C88.93232422 128.99165527 88.34902344 128.1903418 87.74804688 127.36474609 C85.06739967 123.73838452 82.18623884 120.28616555 79.3125 116.8125 C74.86527798 111.35130336 70.49551291 105.83314405 66.15893555 100.28393555 C60.53946986 93.10840365 54.76306686 86.06026362 49 79 C46.79022845 76.29283556 44.58159724 73.58475261 42.375 70.875 C41.84173096 70.22015625 41.30846191 69.5653125 40.7590332 68.890625 C36.58731655 63.7538525 32.48497982 58.56507698 28.42529297 53.33935547 C26.69471422 51.11790726 24.99354731 48.99354731 23 47 C22.67 78.35 22.34 109.7 22 142 C14.74 142 7.48 142 0 142 C0 95.14 0 48.28 0 0 Z " fill="#000000" transform="translate(1147,68)"/>
<path d="M0 0 C14.30025528 13.53587638 20.94512389 32.24100806 21.47924805 51.57983398 C21.63388969 72.07367906 17.15263789 92.1513375 2.33984375 107.2421875 C-13.34812419 121.3823459 -33.24829299 127.06624306 -54.12353516 126.26611328 C-74.78963785 124.98007589 -91.75057498 117.51462 -105.96875 102.2265625 C-118.50906145 87.20574988 -122.2673892 67.42164469 -120.99609375 48.34765625 C-118.77125516 27.59245059 -110.12167018 9.72105481 -93.99609375 -3.65234375 C-66.45290425 -23.23548104 -26.00830007 -21.5293756 0 0 Z M-82.0625 12.71484375 C-91.8185411 25.99882698 -92.58831466 43.82563098 -90.49609375 59.609375 C-87.99318246 75.48514614 -82.11196653 91.14884961 -69.44140625 101.62890625 C-60.13821164 108.16789287 -49.73286316 111.13256731 -38.43359375 109.84765625 C-29.83043806 108.24350489 -22.7237599 104.27090016 -17.3046875 97.33203125 C-5.98356747 80.16448206 -6.68910547 61.05599278 -10.49560547 41.63378906 C-13.43939115 28.18715047 -19.90453579 14.89973293 -30.99609375 6.34765625 C-49.51161985 -4.44128898 -67.63577128 -3.81180579 -82.0625 12.71484375 Z " fill="#000000" transform="translate(1089.99609375,83.65234375)"/>
<path d="M0 0 C29.04 0 58.08 0 88 0 C88 5.94 88 11.88 88 18 C68.2 18 48.4 18 28 18 C28 31.53 28 45.06 28 59 C41.86 59 55.72 59 70 59 C70 65.27 70 71.54 70 78 C56.14 78 42.28 78 28 78 C28 93.18 28 108.36 28 124 C49.45 124 70.9 124 93 124 C93 129.94 93 135.88 93 142 C62.31 142 31.62 142 0 142 C0 95.14 0 48.28 0 0 Z " fill="#000000" transform="translate(296,68)"/>
<path d="M0 0 C0.495 1.485 0.495 1.485 1 3 C0.01196289 4.90112305 0.01196289 4.90112305 -1.52734375 7.01171875 C-2.07197266 7.76904297 -2.61660156 8.52636719 -3.17773438 9.30664062 C-4.04881836 10.48516602 -4.04881836 10.48516602 -4.9375 11.6875 C-5.8027832 12.88342773 -5.8027832 12.88342773 -6.68554688 14.10351562 C-8.11463188 16.07588914 -9.55295625 18.04078433 -11 20 C-11.598125 19.58032959 -12.19625 19.16065918 -12.8125 18.72827148 C-20.93044493 13.08096489 -28.82564814 8.59638935 -39 9 C-43.04346259 9.78896831 -45.44823596 11.25244872 -47.9375 14.625 C-49.75772041 20.40687659 -49.95699681 25.52129157 -47.4375 31.125 C-42.72262912 39.32336655 -35.84344333 43.45462649 -27.765625 47.8984375 C-13.58459888 55.72524475 1.15851046 64.64000147 6.875 80.625 C10.06256166 92.93624116 8.44030802 105.60228219 2.52734375 116.78515625 C-3.9383902 126.91939173 -13.40306961 132.41978816 -25 135 C-42.31451869 137.76706762 -66.04842903 136.8544445 -81 127 C-79.42108151 122.33460809 -76.89611533 118.65783259 -74.0625 114.6875 C-73.61970703 114.04232422 -73.17691406 113.39714844 -72.72070312 112.73242188 C-71.5589575 111.09628236 -70.28605441 109.54034718 -69 108 C-65.04403684 108 -62.65026883 109.82180359 -59.375 111.8125 C-49.03762235 117.85564578 -39.69040808 121.21210388 -27.5625 118.125 C-22.94840915 114.29868076 -20.50269388 109.23905583 -19.5859375 103.33203125 C-19.35394469 96.36170194 -21.19722288 91.79028739 -25.875 86.625 C-31.9953697 80.79851026 -39.60104756 76.8008527 -47.01171875 72.84375 C-60.25831211 65.73616757 -72.75977901 57.32069359 -77.375 42.125 C-79.51850727 31.14228748 -78.25677001 19.82238031 -72.3125 10.25 C-65.66851845 1.15310595 -57.27733656 -4.16059188 -46.22265625 -6.6171875 C-31.20677247 -8.40089248 -13.08891297 -8.3769043 0 0 Z " fill="#000000" transform="translate(508,74)"/>
<path d="M0 0 C41.25 0 82.5 0 125 0 C125 5.94 125 11.88 125 18 C109.16 18 93.32 18 77 18 C77 58.92 77 99.84 77 142 C67.76 142 58.52 142 49 142 C49 101.08 49 60.16 49 18 C32.83 18 16.66 18 0 18 C0 12.06 0 6.12 0 0 Z " fill="#000000" transform="translate(834,68)"/>
<path d="M0 0 C0 0.66 0 1.32 0 2 C-0.79921875 2.21914062 -1.5984375 2.43828125 -2.421875 2.6640625 C-14.3319504 6.10288709 -24.64060439 10.7819941 -34 19 C-35.01513672 19.87398437 -35.01513672 19.87398437 -36.05078125 20.765625 C-49.72582237 33.40508048 -55.97331555 50.9529922 -56.96484375 69.125 C-57.13497014 87.87670832 -49.83943962 104.90301476 -36.8515625 118.20703125 C-26.95310879 127.90209208 -16.32567632 133.96321693 -2.828125 137.359375 C-1 138 -1 138 0 140 C-17.19607301 144.83974463 -36.58234525 140.01831393 -51.8828125 131.84765625 C-56.28146855 129.2404328 -60.19179147 126.40734447 -64 123 C-65.12148437 122.01773438 -65.12148437 122.01773438 -66.265625 121.015625 C-77.52896722 110.51849654 -86.09387461 95.04695583 -87.17700195 79.45141602 C-87.68770174 56.97045219 -84.39638875 39.37028475 -69 22 C-68.48050781 21.38640625 -67.96101563 20.7728125 -67.42578125 20.140625 C-58.54813218 10.39086431 -46.46102682 4.60355332 -34 1 C-32.79537109 0.63261719 -32.79537109 0.63261719 -31.56640625 0.2578125 C-22.05733313 -2.14829612 -9.53819157 -2.41840557 0 0 Z " fill="#000000" transform="translate(217,69)"/>
<path d="M0 0 C9.24 0 18.48 0 28 0 C28 46.86 28 93.72 28 142 C18.76 142 9.52 142 0 142 C0 95.14 0 48.28 0 0 Z " fill="#000000" transform="translate(1302,68)"/>
<path d="M0 0 C0.83724609 -0.020625 1.67449219 -0.04125 2.53710938 -0.0625 C3.33826172 -0.06765625 4.13941406 -0.0728125 4.96484375 -0.078125 C6.07073853 -0.09214355 6.07073853 -0.09214355 7.19897461 -0.10644531 C7.81393799 0.01118164 8.42890137 0.12880859 9.0625 0.25 C11.0625 3.25 11.0625 3.25 10.87280273 6.38500977 C9.95017042 10.78579077 8.62384293 14.86780896 7.09765625 19.08984375 C6.79310516 19.94774506 6.48855408 20.80564636 6.17477417 21.68954468 C5.16540378 24.52483449 4.1456695 27.3562598 3.125 30.1875 C2.40622374 32.19486706 1.68755721 34.20227341 0.96899414 36.2097168 C-6.37873418 56.67646354 -14.03243359 77.02801024 -21.71826172 97.36962891 C-25.01430116 106.09676832 -28.2854256 114.83325262 -31.55807495 123.56918335 C-33.13411612 127.77564695 -34.71162997 131.98155802 -36.2890625 136.1875 C-37.16304687 138.518125 -38.03703125 140.84875 -38.9375 143.25 C-46.5275 143.25 -54.1175 143.25 -61.9375 143.25 C-59.98985874 136.75786247 -57.9955933 130.43787615 -55.62890625 124.109375 C-55.31027618 123.24951996 -54.99164612 122.38966492 -54.6633606 121.50375366 C-53.61180808 118.6680827 -52.55591247 115.83405003 -51.5 113 C-50.75010542 110.98041791 -50.00051941 108.96072121 -49.2512207 106.94091797 C-47.65292868 102.63359355 -46.05302629 98.3268718 -44.45214844 94.02050781 C-41.89094046 87.12817986 -39.33915208 80.23238558 -36.7890625 73.3359375 C-31.84659968 59.97096602 -26.89633233 46.60890676 -21.9375 33.25 C-21.59384399 32.32407043 -21.25018799 31.39814087 -20.89611816 30.44415283 C-19.10909305 25.63074256 -17.31904352 20.8184837 -15.52285767 16.00848389 C-15.01297017 14.6421666 -14.50397835 13.27551467 -13.99594116 11.9085083 C-13.31896206 10.0877548 -12.63813242 8.26843429 -11.95703125 6.44921875 C-11.40172729 4.96168091 -11.40172729 4.96168091 -10.83520508 3.4440918 C-8.86517785 -1.37087549 -4.57013009 0.02801612 0 0 Z " fill="#000000" transform="translate(597.9375,66.75)"/>
<path d="M0 0 C3.15078772 1.57539386 3.46485679 4.22554929 4.73046875 7.453125 C5.13041298 8.4635939 5.13041298 8.4635939 5.53843689 9.49447632 C6.1198699 10.96561561 6.69816362 12.4379985 7.27374268 13.91143799 C8.52272391 17.10793228 9.78722696 20.298216 11.05059814 23.48904419 C11.71280548 25.16213272 12.37420947 26.83553942 13.03485107 28.50924683 C16.05615226 36.16126282 19.1310016 43.79087166 22.22668457 51.41305542 C23.13094496 53.63963842 24.03380729 55.86678467 24.93652344 58.09399414 C28.27180027 66.31678928 31.62525923 74.53199825 34.99249268 82.74176025 C36.85030864 87.27141499 38.70590693 91.80197737 40.56170654 96.3324585 C41.92211433 99.64998014 43.28644923 102.96586915 44.65087891 106.28173828 C45.48488064 108.31665796 46.31871072 110.351648 47.15234375 112.38671875 C47.54218948 113.33072037 47.93203522 114.27472198 48.33369446 115.24732971 C48.68626816 116.11019089 49.03884186 116.97305206 49.40209961 117.86206055 C49.86718178 118.99371895 49.86718178 118.99371895 50.34165955 120.14823914 C51 122 51 122 51 124 C41.1 124 31.2 124 21 124 C19.77925781 120.84566406 18.55851563 117.69132812 17.30078125 114.44140625 C16.50106784 112.37699914 15.70127439 110.31262304 14.90136719 108.24829102 C13.16828761 103.77477212 11.43895487 99.29982799 9.71191406 94.82397461 C5.82525295 84.76493392 1.92170209 74.71891779 -2.19140625 64.75 C-2.80604247 63.24678483 -3.42039305 61.74345282 -4.03442383 60.23999023 C-5.14314356 57.52617019 -6.27787571 54.82543477 -7.4284668 52.12915039 C-12.59654297 39.47551677 -9.91677463 30.68238456 -6.13427734 18.0559082 C-5.4926749 15.91303507 -4.86449874 13.76655492 -4.23828125 11.61914062 C-1.1590087 1.1590087 -1.1590087 1.1590087 0 0 Z " fill="#000000" transform="translate(613,86)"/>
<path d="M0 0 C9 0 9 0 11.21508789 1.89599609 C11.71258545 2.76305176 12.21008301 3.63010742 12.72265625 4.5234375 C13.55893555 5.93109375 13.55893555 5.93109375 14.41210938 7.3671875 C14.95673828 8.35976563 15.50136719 9.35234375 16.0625 10.375 C16.64193359 11.35984375 17.22136719 12.3446875 17.81835938 13.359375 C22 20.5673978 22 20.5673978 22 23 C24.54844244 20.69765578 26.01544765 18.36658356 27.6015625 15.33203125 C28.09269531 14.43935547 28.58382813 13.54667969 29.08984375 12.62695312 C30.11291025 10.7513312 31.11307389 8.86303359 32.08984375 6.96289062 C32.58871094 6.07408203 33.08757812 5.18527344 33.6015625 4.26953125 C34.03807129 3.45073486 34.47458008 2.63193848 34.92431641 1.78833008 C37 0 37 0 46 0 C46 13.53 46 27.06 46 41 C42.7 41 39.4 41 36 41 C35.67 34.73 35.34 28.46 35 22 C32.28313235 26.92290403 32.28313235 26.92290403 29.61669922 31.87304688 C27.68396285 35.23200939 26.80305966 36.74904386 23 37.9375 C18.46321498 36.51975468 17.27077703 33.54675063 15.125 29.5 C13.76375 27.025 12.4025 24.55 11 22 C10.67 28.27 10.34 34.54 10 41 C6.7 41 3.4 41 0 41 C0 27.47 0 13.94 0 0 Z " fill="#000000" transform="translate(1171,310)"/>
<path d="M0 0 C9 0 9 0 10.91015625 1.51171875 C11.48056641 2.58873047 11.48056641 2.58873047 12.0625 3.6875 C12.52011719 4.49445313 12.97773437 5.30140625 13.44921875 6.1328125 C13.96097656 7.07898438 14.47273438 8.02515625 15 9 C16.07160936 10.77128033 17.16624761 12.52693462 18.26342773 14.2824707 C19.86226664 16.84279016 21.43003503 19.42191031 23 22 C25.53614085 19.10404054 27.50032239 16.19571774 29.26171875 12.79296875 C29.65939453 12.04208984 30.05707031 11.29121094 30.46679688 10.51757812 C31.28451303 8.95672154 32.07873059 7.38334032 32.84960938 5.79882812 C33.25373047 5.05439453 33.65785156 4.30996094 34.07421875 3.54296875 C34.42057373 2.86258545 34.76692871 2.18220215 35.1237793 1.48120117 C37 0 37 0 46 0 C46.495 20.295 46.495 20.295 47 41 C43.7 41 40.4 41 37 41 C36.67 34.4 36.34 27.8 36 21 C32.91386906 26.25386737 32.91386906 26.25386737 29.8684082 31.53125 C26.68113461 36.79269816 26.68113461 36.79269816 23.39453125 37.79296875 C20.11404386 36.70660833 19.22317719 35.20291409 17.375 32.3125 C16.80523438 31.44238281 16.23546875 30.57226562 15.6484375 29.67578125 C14.07951198 27.12906565 12.53896058 24.56493431 11 22 C10.67 28.27 10.34 34.54 10 41 C6.7 41 3.4 41 0 41 C0 27.47 0 13.94 0 0 Z " fill="#000000" transform="translate(1024,310)"/>
<path d="M0 0 C8.07442204 3.50399447 14.78379062 8.78379062 21 15 C20.74868754 18.85886233 18.67755776 20.70664088 15.9375 23.25 C11.55537593 27.04573912 7.01171936 29.94664055 1.875 32.625 C1.21878662 32.97981445 0.56257324 33.33462891 -0.11352539 33.70019531 C-6.3723195 36.7831297 -10.87020171 35.83246918 -17.421875 34.08984375 C-25.69152363 31.22652644 -33.34880121 27.82284436 -40 22 C-40 21.01 -40 20.02 -40 19 C-39.00742188 18.79246094 -38.01484375 18.58492187 -36.9921875 18.37109375 C-22.72987367 15.21111641 -11.06480386 9.81555181 0 0 Z " fill="#000000" transform="translate(237,169)"/>
<path d="M0 0 C4.22812235 3.06701403 8.13873316 6.48525711 12 10 C10.90031498 16.15555395 6.05076467 19.48723565 1.23046875 23.04296875 C-6.20840328 28.03209176 -6.20840328 28.03209176 -9.0234375 27.91796875 C-11.63418023 26.70546966 -13.67797748 25.09633357 -15.9375 23.3125 C-26.36270536 15.59370557 -37.53967463 11.92981371 -50 9 C-35.74925423 -5.9065323 -17.76573532 -11.27012353 0 0 Z " fill="#000000" transform="translate(246,81)"/>
<path d="M0 0 C9 0 9 0 12.07421875 2.5625 C12.97321519 3.68657462 13.84420817 4.83355359 14.6875 6 C15.12126953 6.55300781 15.55503906 7.10601562 16.00195312 7.67578125 C17.3649519 9.42734541 18.68194405 11.21437092 20 13 C21.98 15.64 23.96 18.28 26 21 C26.33 14.07 26.66 7.14 27 0 C30.63 0 34.26 0 38 0 C38 13.53 38 27.06 38 41 C29 41 29 41 26.21484375 38.9453125 C25.46332031 38.01460938 24.71179688 37.08390625 23.9375 36.125 C22.70193359 34.63419922 22.70193359 34.63419922 21.44140625 33.11328125 C20.23291016 31.57220703 20.23291016 31.57220703 19 30 C18.20464844 29.02417969 17.40929687 28.04835938 16.58984375 27.04296875 C14.70170223 24.7152599 12.84720931 22.360323 11 20 C10.67 26.93 10.34 33.86 10 41 C6.7 41 3.4 41 0 41 C0 27.47 0 13.94 0 0 Z " fill="#000000" transform="translate(620,310)"/>
<path d="M0 0 C5.23444039 3.3346821 8.30555995 6.9199504 10 13 C10.85352505 20.12693413 10.37176352 26.14106766 6 32 C0.66722543 37.79761691 -4.44176504 40.02470303 -12.3125 40.375 C-18.7488356 40.22633464 -23.98652062 38.72894484 -28.8203125 34.3515625 C-33.8853604 28.74820033 -35.42862698 24.01684898 -35.25 16.4921875 C-34.71271965 11.13617398 -32.26723455 6.37516208 -28.7109375 2.35546875 C-20.24747795 -4.3496008 -9.41533337 -4.42487398 0 0 Z M-21 9 C-23.77017027 12.41654334 -24.82461137 15.61528429 -25 20 C-23.75250344 24.25616474 -22.5783025 26.48741369 -19.25 29.4375 C-15.39497128 31.29087919 -13.22989818 31.60427117 -9 31 C-4.94588364 29.05090559 -3.30868542 27.53771009 -1.0625 23.625 C0.3745097 18.72226101 -0.18516124 15.94655925 -2.125 11.3125 C-4.66128814 8.1844113 -7.22869611 7.27954954 -11 6 C-14.98919362 6 -17.46966608 7.17179136 -21 9 Z " fill="#000000" transform="translate(806,311)"/>
<path d="M0 0 C4.39028014 3.73323141 7.4650221 7.37745746 7.9609375 13.3203125 C8.24746523 26.18389958 8.24746523 26.18389958 3.72265625 31.46484375 C-2.73884321 36.87116256 -8.19832581 38.86147381 -16.55078125 38.73828125 C-22.90480838 38.1010579 -28.40087624 35.86873106 -32.77734375 31.15234375 C-36.82048924 25.79574704 -37.85784744 20.08258576 -37.27734375 13.46484375 C-35.79002448 7.7869753 -33.5823433 2.52005356 -28.41796875 -0.69140625 C-19.16058139 -5.56371539 -8.82286959 -6.25028749 0 0 Z M-24.65234375 9.58984375 C-26.92451826 13.60984481 -26.94256205 16.94792939 -26.27734375 21.46484375 C-24.91580172 24.94434005 -23.68660927 26.17251124 -20.65234375 28.33984375 C-16.24659406 29.80842698 -12.70454147 29.96503598 -8.27734375 28.46484375 C-5.55609274 26.25181692 -3.84659462 23.6033455 -2.27734375 20.46484375 C-2.23342247 15.99365719 -2.72586102 12.3905469 -5.02734375 8.52734375 C-11.60235511 2.50025 -18.30530407 3.91091351 -24.65234375 9.58984375 Z " fill="#000000" transform="translate(331.27734375,312.53515625)"/>
<path d="M0 0 C3.980625 -0.0825 7.96125 -0.165 12.0625 -0.25 C13.30394775 -0.28641602 14.54539551 -0.32283203 15.82446289 -0.36035156 C22.46985313 -0.4268967 26.63598559 -0.03606648 32 4 C34.93231473 7.2255462 35.91307849 9.8700204 36.25 14.25 C35.95523459 18.67148118 35.06351055 21.10225785 33 25 C32.01 25.66 31.02 26.32 30 27 C30.63113578 30.49121942 32.04085439 32.79602106 34.0625 35.6875 C37 39.91058824 37 39.91058824 37 41 C32.84953549 41.61336914 29.12339786 41.87654621 25 41 C22.73274218 38.60464851 21.30025279 36.15047341 19.66796875 33.29296875 C18.20580847 30.85712194 18.20580847 30.85712194 15.80078125 30.11328125 C13.34664696 29.79895226 13.34664696 29.79895226 10 30 C10 33.63 10 37.26 10 41 C6.7 41 3.4 41 0 41 C0 27.47 0 13.94 0 0 Z M10 8 C10 12.29 10 16.58 10 21 C11.7325 21.061875 13.465 21.12375 15.25 21.1875 C16.22453125 21.22230469 17.1990625 21.25710938 18.203125 21.29296875 C21.42027204 20.95597709 22.73357995 20.2770356 25 18 C25.47350184 14.75313026 25.64576592 12.89177198 23.6875 10.1875 C20.6200074 8.02889409 17.93614574 7.8849834 14.3125 7.9375 C12.889375 7.958125 11.46625 7.97875 10 8 Z " fill="#000000" transform="translate(357,310)"/>
<path d="M0 0 C5.6925 -0.12375 5.6925 -0.12375 11.5 -0.25 C12.68013672 -0.28641602 13.86027344 -0.32283203 15.07617188 -0.36035156 C21.88278509 -0.43158891 26.22638953 0.32649814 32 4 C35.21528055 7.73387418 36.16661844 12.12178247 36 17 C34.98970167 20.90907737 33.3127489 24.55144647 30 27 C29.34 27 28.68 27 28 27 C28.5775 27.84304688 29.155 28.68609375 29.75 29.5546875 C30.50024193 30.66129435 31.25022874 31.76807419 32 32.875 C33.11375 34.51082031 33.11375 34.51082031 34.25 36.1796875 C36 39 36 39 36 41 C32.17145802 41.62309002 28.80118313 41.87046063 25 41 C22.79898471 38.59772456 21.33721288 36.10502775 19.703125 33.29296875 C18.20560682 30.85999314 18.20560682 30.85999314 15.796875 30.11328125 C13.34601156 29.79886625 13.34601156 29.79886625 10 30 C10 33.63 10 37.26 10 41 C6.7 41 3.4 41 0 41 C0 27.47 0 13.94 0 0 Z M10 8 C10 12.29 10 16.58 10 21 C17.20027461 21.65340934 17.20027461 21.65340934 23.6875 19.3125 C25.25613705 16.54871092 25.56114721 15.1263916 25 12 C23.12139167 9.4951889 22.03898126 9.01299375 19 8 C17.43881572 7.93259135 15.8749748 7.91485544 14.3125 7.9375 C12.889375 7.958125 11.46625 7.97875 10 8 Z " fill="#000000" transform="translate(924,310)"/>
<path d="M0 0 C10.56 0 21.12 0 32 0 C32 2.64 32 5.28 32 8 C25.07 8 18.14 8 11 8 C11 10.64 11 13.28 11 16 C16.94 16 22.88 16 29 16 C29 18.64 29 21.28 29 24 C23.06 24 17.12 24 11 24 C11 26.64 11 29.28 11 32 C18.26 32 25.52 32 33 32 C33 34.97 33 37.94 33 41 C22.11 41 11.22 41 0 41 C0 27.47 0 13.94 0 0 Z " fill="#000000" transform="translate(976,310)"/>
<path d="M0 0 C6.001875 -0.0928125 6.001875 -0.0928125 12.125 -0.1875 C13.37555176 -0.21481201 14.62610352 -0.24212402 15.91455078 -0.27026367 C23.07037063 -0.3238718 27.74114963 0.18153482 33.3125 5 C36.50301179 8.7813473 36.33640486 12.76265833 36.28125 17.4921875 C35.86460293 21.20729058 34.47744601 23.25472199 32 26 C26.98093038 29.63882547 22.85316842 30.12883879 16.75 30.0625 C15.67234375 30.05347656 14.5946875 30.04445313 13.484375 30.03515625 C12.66453125 30.02355469 11.8446875 30.01195312 11 30 C11 33.63 11 37.26 11 41 C7.37 41 3.74 41 0 41 C0 27.47 0 13.94 0 0 Z M11 8 C11 12.29 11 16.58 11 21 C18.42506894 21.80509115 18.42506894 21.80509115 24.75 18.8125 C26.16552603 16.11291015 26.16552603 16.11291015 26.0625 13.375 C24.57797155 10.0566423 23.38588257 9.34024518 20 8 C16.95069754 7.76504537 14.06758459 7.86264547 11 8 Z " fill="#000000" transform="translate(243,310)"/>
<path d="M0 0 C10.23 0 20.46 0 31 0 C31 2.64 31 5.28 31 8 C24.07 8 17.14 8 10 8 C10 10.64 10 13.28 10 16 C15.94 16 21.88 16 28 16 C28 18.64 28 21.28 28 24 C22.06 24 16.12 24 10 24 C10 26.64 10 29.28 10 32 C17.26 32 24.52 32 32 32 C32 34.97 32 37.94 32 41 C21.44 41 10.88 41 0 41 C0 27.47 0 13.94 0 0 Z " fill="#000000" transform="translate(466,310)"/>
<path d="M0 0 C1.51400391 0.01740234 1.51400391 0.01740234 3.05859375 0.03515625 C4.07050781 0.04417969 5.08242188 0.05320312 6.125 0.0625 C7.29869141 0.07990234 7.29869141 0.07990234 8.49609375 0.09765625 C10.92428961 5.45131149 13.3451666 10.80819149 15.75927734 16.16821289 C16.58180897 17.99171322 17.40634438 19.81431107 18.23291016 21.63598633 C19.41965417 24.25237935 20.59918854 26.87191786 21.77734375 29.4921875 C22.149198 30.30790726 22.52105225 31.12362701 22.9041748 31.96406555 C23.24452759 32.72462753 23.58488037 33.48518951 23.93554688 34.26879883 C24.23755005 34.93720291 24.53955322 35.60560699 24.85070801 36.29426575 C25.49609375 38.09765625 25.49609375 38.09765625 25.49609375 41.09765625 C21.86609375 41.09765625 18.23609375 41.09765625 14.49609375 41.09765625 C13.50609375 38.45765625 12.51609375 35.81765625 11.49609375 33.09765625 C5.55609375 32.76765625 -0.38390625 32.43765625 -6.50390625 32.09765625 C-7.49390625 35.06765625 -8.48390625 38.03765625 -9.50390625 41.09765625 C-13.13390625 41.09765625 -16.76390625 41.09765625 -20.50390625 41.09765625 C-18.99109325 36.27782932 -17.10656558 31.7192275 -15.0625 27.109375 C-14.57089134 25.99366875 -14.57089134 25.99366875 -14.0693512 24.85542297 C-13.38064194 23.29422761 -12.69059173 21.73362319 -11.99926758 20.17358398 C-10.93774751 17.77689559 -9.88168506 15.3778546 -8.82617188 12.97851562 C-8.15527071 11.45949281 -7.48405786 9.9406076 -6.8125 8.421875 C-6.4958287 7.70215012 -6.17915741 6.98242523 -5.85289001 6.2408905 C-3.13455666 0.1222526 -3.13455666 0.1222526 0 0 Z M2.49609375 12.09765625 C1.84516785 13.34501192 1.20057706 14.59567457 0.55859375 15.84765625 C0.01912109 16.89179688 0.01912109 16.89179688 -0.53125 17.95703125 C-1.69313581 20.34311168 -1.69313581 20.34311168 -2.50390625 24.09765625 C0.79609375 24.09765625 4.09609375 24.09765625 7.49609375 24.09765625 C6.83110992 19.708763 5.30851698 16.11650775 3.49609375 12.09765625 C3.16609375 12.09765625 2.83609375 12.09765625 2.49609375 12.09765625 Z " fill="#000000" transform="translate(692.50390625,309.90234375)"/>
<path d="M0 0 C3.63 0 7.26 0 11 0 C15.67750548 8.92397804 19.86784139 18.03425184 23.9375 27.25 C24.43419189 28.36947021 24.93088379 29.48894043 25.44262695 30.64233398 C26.13424927 32.21930054 26.13424927 32.21930054 26.83984375 33.828125 C27.25613037 34.7759082 27.67241699 35.72369141 28.10131836 36.70019531 C29 39 29 39 29 41 C25.37 41 21.74 41 18 41 C15 35.375 15 35.375 15 32 C9.06 32.33 3.12 32.66 -3 33 C-4.32 35.64 -5.64 38.28 -7 41 C-10.3 41 -13.6 41 -17 41 C-16.32579465 36.15493425 -14.40062584 32.05059966 -12.40234375 27.63671875 C-12.04862198 26.84473587 -11.69490021 26.05275299 -11.33045959 25.23677063 C-10.20426292 22.71816953 -9.07099444 20.20282393 -7.9375 17.6875 C-7.1707546 15.97612167 -6.40447326 14.26453534 -5.63867188 12.55273438 C-3.76448267 8.3660607 -1.88394649 4.18229155 0 0 Z M5 12 C4.32645501 13.43429001 3.66140299 14.87257057 3 16.3125 C2.62875 17.11300781 2.2575 17.91351563 1.875 18.73828125 C0.81959333 21.06213959 0.81959333 21.06213959 1 24 C4.3 24 7.6 24 11 24 C10.38385645 22.18447022 9.75681772 20.3726347 9.125 18.5625 C8.77695312 17.55316406 8.42890625 16.54382813 8.0703125 15.50390625 C7.25944907 12.86028249 7.25944907 12.86028249 5 12 Z " fill="#000000" transform="translate(576,310)"/>
<path d="M0 0 C3.3 0 6.6 0 10 0 C10.01458252 0.76143311 10.02916504 1.52286621 10.04418945 2.30737305 C10.11880541 5.76791888 10.21542259 9.22751445 10.3125 12.6875 C10.33505859 13.88568359 10.35761719 15.08386719 10.38085938 16.31835938 C10.41630859 17.47529297 10.45175781 18.63222656 10.48828125 19.82421875 C10.51446533 20.88729248 10.54064941 21.95036621 10.56762695 23.0456543 C11.05445981 26.37211642 12.02469581 28.30117443 14 31 C16.77100394 32.38550197 18.9334706 32.1877467 22 32 C25.24849977 30.27773504 25.24849977 30.27773504 26 27 C26.15029988 24.93637009 26.24844448 22.86876085 26.31640625 20.80078125 C26.35830078 19.59228516 26.40019531 18.38378906 26.44335938 17.13867188 C26.48267578 15.87603516 26.52199219 14.61339844 26.5625 13.3125 C26.60568359 12.03826172 26.64886719 10.76402344 26.69335938 9.45117188 C26.7995486 6.30089148 26.90159533 3.15053161 27 0 C30.3 0 33.6 0 37 0 C37.07453622 4.1625612 37.12878254 8.3247618 37.16479492 12.48779297 C37.17981825 13.90192437 37.20024305 15.31600968 37.22631836 16.72998047 C37.26298954 18.77062397 37.27979036 20.81064792 37.29296875 22.8515625 C37.3086792 24.07697754 37.32438965 25.30239258 37.34057617 26.56494141 C36.84607717 31.55246896 35.252093 34.81380663 31.625 38.25 C25.60771295 42.2615247 20.08769302 42.79413927 13 42 C8.29761811 40.62521725 5.6181165 38.77660791 2.5625 34.9375 C0.1927412 30.48235346 -0.11946791 27.35815091 -0.09765625 22.36328125 C-0.09443359 21.06455078 -0.09121094 19.76582031 -0.08789062 18.42773438 C-0.07953531 17.05598892 -0.07107037 15.68424413 -0.0625 14.3125 C-0.05748335 12.92903805 -0.05292073 11.54557437 -0.04882812 10.16210938 C-0.03702529 6.77469605 -0.02056019 3.38736967 0 0 Z " fill="#000000" transform="translate(1116,309)"/>
<path d="M0 0 C5.6925 -0.12375 5.6925 -0.12375 11.5 -0.25 C12.68013672 -0.28641602 13.86027344 -0.32283203 15.07617188 -0.36035156 C21.88278509 -0.43158891 26.22638953 0.32649814 32 4 C35.21848285 7.73759299 36.15775606 12.11884178 36 17 C34.53930319 21.61272677 32.90489242 25.07133068 29 28 C22.8101674 30.57909691 16.6209761 30.19569387 10 30 C10 33.63 10 37.26 10 41 C6.7 41 3.4 41 0 41 C0 27.47 0 13.94 0 0 Z M10 8 C10 12.29 10 16.58 10 21 C17.20027461 21.65340934 17.20027461 21.65340934 23.6875 19.3125 C25.25613705 16.54871092 25.56114721 15.1263916 25 12 C23.12139167 9.4951889 22.03898126 9.01299375 19 8 C17.43881572 7.93259135 15.8749748 7.91485544 14.3125 7.9375 C12.889375 7.958125 11.46625 7.97875 10 8 Z " fill="#000000" transform="translate(871,310)"/>
<path d="M0 0 C1.36328125 1.44921875 1.36328125 1.44921875 1.36328125 5.44921875 C-1.13671875 7.69921875 -1.13671875 7.69921875 -3.63671875 9.44921875 C-4.19359375 9.16046875 -4.75046875 8.87171875 -5.32421875 8.57421875 C-6.08734375 8.20296875 -6.85046875 7.83171875 -7.63671875 7.44921875 C-8.39984375 7.05734375 -9.16296875 6.66546875 -9.94921875 6.26171875 C-13.61344941 5.15392808 -15.94727831 5.46097577 -19.63671875 6.44921875 C-22.21969656 8.63913472 -24.12087719 10.41753563 -25.63671875 13.44921875 C-26.01265027 18.43031134 -25.81323485 21.50595739 -22.63671875 25.44921875 C-19.76172757 27.76518387 -17.93764592 28.41020967 -14.26171875 28.88671875 C-9.7547878 28.34277881 -7.4102629 26.91357411 -3.63671875 24.44921875 C-1.65671875 26.09921875 0.32328125 27.74921875 2.36328125 29.44921875 C0.8556347 33.67062909 -1.84964744 35.25271739 -5.63671875 37.44921875 C-13.10723492 39.77610084 -20.37073317 38.85111504 -27.4375 35.72265625 C-31.89282544 33.14284081 -34.73731759 29.21016314 -36.63671875 24.44921875 C-36.9375 21.20703125 -36.9375 21.20703125 -36.94921875 17.57421875 C-36.96597656 16.38054687 -36.98273438 15.186875 -37 13.95703125 C-36.33992523 7.58340603 -33.41470122 3.56050599 -28.63671875 -0.55078125 C-19.26251207 -6.01906848 -9.15334926 -5.81485314 0 0 Z " fill="#000000" transform="translate(445.63671875,312.55078125)"/>
<path d="M0 0 C3.63 0 7.26 0 11 0 C11 10.56 11 21.12 11 32 C17.6 32 24.2 32 31 32 C31 34.97 31 37.94 31 41 C20.77 41 10.54 41 0 41 C0 27.47 0 13.94 0 0 Z " fill="#000000" transform="translate(516,310)"/>
<path d="M0 0 C11.88 0 23.76 0 36 0 C36 2.64 36 5.28 36 8 C31.71 8 27.42 8 23 8 C23 18.89 23 29.78 23 41 C19.7 41 16.4 41 13 41 C13 30.11 13 19.22 13 8 C8.71 8 4.42 8 0 8 C0 5.36 0 2.72 0 0 Z " fill="#000000" transform="translate(726,310)"/>
<path d="M0 0 C3.3 0 6.6 0 10 0 C10 13.53 10 27.06 10 41 C6.7 41 3.4 41 0 41 C0 27.47 0 13.94 0 0 Z " fill="#000000" transform="translate(1088,310)"/>
</svg>
